<?xml version="1.0" standalone="no"?>
<!DOCTYPE svg PUBLIC "-//W3C//DTD SVG 20010904//EN"
 "http://www.w3.org/TR/2001/REC-SVG-20010904/DTD/svg10.dtd">
<svg version="1.0" xmlns="http://www.w3.org/2000/svg"
 width="500.000000pt" height="500.000000pt" viewBox="0 0 500.000000 500.000000"
 preserveAspectRatio="xMidYMid meet">
<metadata>
Created by potrace 1.14, written by Peter Selinger 2001-2017
</metadata>
<g transform="translate(0.000000,500.000000) scale(0.100000,-0.100000)"
fill="#000000" stroke="none">
<path d="M1457 4424 c-2 -3 -67 -6 -143 -8 -77 -2 -152 -6 -169 -10 -153 -34
-290 -109 -390 -211 -71 -73 -95 -102 -95 -115 0 -6 -4 -10 -8 -10 -8 0 -36
-51 -32 -59 1 -2 -2 -7 -7 -10 -19 -14 -56 -118 -72 -201 -12 -66 -10 -2521 3
-2560 4 -14 8 -31 8 -37 1 -7 5 -13 10 -13 5 0 7 -4 4 -8 -6 -10 29 -98 64
-161 43 -77 50 -86 50 -76 0 6 6 0 13 -12 7 -13 37 -49 67 -81 30 -33 66 -77
79 -100 21 -35 71 -90 143 -156 9 -9 21 -16 27 -16 6 0 11 -4 11 -9 0 -5 8
-11 18 -15 9 -3 40 -19 69 -34 63 -35 139 -59 218 -70 62 -8 2550 -7 2595 2
14 2 26 5 28 6 3 3 12 5 57 15 22 4 51 13 65 20 14 7 45 21 70 31 65 26 166
98 234 168 58 59 156 199 156 222 0 6 7 17 15 24 8 7 15 22 15 34 0 12 4 26
10 32 5 5 18 50 29 99 17 85 18 153 17 1240 l-1 1150 -23 72 c-25 79 -73 179
-100 209 -10 10 -26 48 -37 84 -33 114 -128 290 -156 290 -5 0 -9 6 -9 13 0
40 -206 182 -311 216 -95 31 -176 43 -260 39 -44 -2 -79 1 -79 5 0 5 -4 5 -10
2 -8 -5 -76 -7 -150 -4 -8 0 -44 0 -80 0 -36 -1 -72 -1 -80 0 -12 0 -1392 1
-1440 0 -73 -1 -166 -1 -220 -2 -35 0 -66 -2 -68 -4 -2 -2 -14 0 -26 4 -11 5
-30 5 -41 1 -11 -4 -30 -4 -41 1 -12 4 -24 6 -27 3z"/>
</g>
</svg>
